name C:\Users\u0150099\Documents\master_thesis\3dpredictsim\Results\Final\Fal_s1_bCst_tanh10_ig21.mot
datacolumns 126
datarows 4
range 0.55547863 0.58880735
endheader
time	pelvis_tilt	pelvis_list	pelvis_rotation	pelvis_tx	pelvis_ty	pelvis_tz	hip_flexion_l	hip_adduction_l	hip_rotation_l	hip_flexion_r	hip_adduction_r	hip_rotation_r	knee_angle_l	knee_angle_r	ankle_angle_l	ankle_angle_r	subtalar_angle_l	subtalar_angle_r	mtp_angle_l	mtp_angle_r	lumbar_extension	lumbar_bending	lumbar_rotation	arm_flex_l	arm_add_l	arm_rot_l	arm_flex_r	arm_add_r	arm_rot_r	elbow_flex_l	elbow_flex_r	pro_sup_l	pro_sup_r	glut_med1_l/activation	glut_med2_l/activation	glut_med3_l/activation	glut_min1_l/activation	glut_min2_l/activation	glut_min3_l/activation	semimem_l/activation	semiten_l/activation	bifemlh_l/activation	bifemsh_l/activation	sar_l/activation	add_long_l/activation	add_brev_l/activation	add_mag1_l/activation	add_mag2_l/activation	add_mag3_l/activation	tfl_l/activation	pect_l/activation	grac_l/activation	glut_max1_l/activation	glut_max2_l/activation	glut_max3_l/activation	iliacus_l/activation	psoas_l/activation	quad_fem_l/activation	gem_l/activation	peri_l/activation	rect_fem_l/activation	vas_med_l/activation	vas_int_l/activation	vas_lat_l/activation	med_gas_l/activation	lat_gas_l/activation	soleus_l/activation	tib_post_l/activation	flex_dig_l/activation	flex_hal_l/activation	tib_ant_l/activation	per_brev_l/activation	per_long_l/activation	per_tert_l/activation	ext_dig_l/activation	ext_hal_l/activation	ercspn_l/activation	intobl_l/activation	extobl_l/activation	glut_med1_r/activation	glut_med2_r/activation	glut_med3_r/activation	glut_min1_r/activation	glut_min2_r/activation	glut_min3_r/activation	semimem_r/activation	semiten_r/activation	bifemlh_r/activation	bifemsh_r/activation	sar_r/activation	add_long_r/activation	add_brev_r/activation	add_mag1_r/activation	add_mag2_r/activation	add_mag3_r/activation	tfl_r/activation	pect_r/activation	grac_r/activation	glut_max1_r/activation	glut_max2_r/activation	glut_max3_r/activation	iliacus_r/activation	psoas_r/activation	quad_fem_r/activation	gem_r/activation	peri_r/activation	rect_fem_r/activation	vas_med_r/activation	vas_int_r/activation	vas_lat_r/activation	med_gas_r/activation	lat_gas_r/activation	soleus_r/activation	tib_post_r/activation	flex_dig_r/activation	flex_hal_r/activation	tib_ant_r/activation	per_brev_r/activation	per_long_r/activation	per_tert_r/activation	ext_dig_r/activation	ext_hal_r/activation	ercspn_r/activation	intobl_r/activation	extobl_r/activation	
          0.55547863	         -2.92942321	          2.02503445	         -5.03026480	          0.69434829	          0.91991400	          0.00165796	         29.48546126	          3.47926908	         -1.78530187	        -17.57875615	         -1.27649485	          6.33696948	        -13.11739049	         -6.58247663	          6.56310477	         -0.16824495	         -4.05726870	         10.44616723	         -0.11388766	         21.85538401	         -2.21909789	         -0.36957995	          1.81923450	         -5.81027238	        -13.49004642	          4.90668278	          4.72505097	        -13.46110459	         15.55483709	         17.88436047	         35.78958978	         86.51662706	         86.51662706	          0.05925773	          0.05925756	          0.05000023	          0.05925804	          0.05925798	          0.05001003	          0.05925910	          0.05000260	          0.21667712	          0.05000015	          0.05000065	          0.13829498	          0.31818416	          0.14770652	          0.16177116	          0.11841199	          0.05000019	          0.08329089	          0.06319271	          0.05000081	          0.14161370	          0.16344378	          0.05580692	          0.05000076	          0.18604444	          0.26261136	          0.13548226	          0.05881752	          0.15527081	          0.15122350	          0.13596037	          0.05063984	          0.05133758	          0.05478832	          0.05000004	          0.05000074	          0.05000030	          0.60546382	          0.28063056	          0.16826181	          0.32775009	          0.52649178	          0.27638238	          0.05925795	          0.10231467	          0.10100513	          0.27295487	          0.09865667	          0.07023892	          0.29903718	          0.19465320	          0.10634945	          0.05000122	          0.05000036	          0.05000025	          0.05963941	          0.09865469	          0.10818294	          0.09770184	          0.05000451	          0.05000528	          0.05000122	          0.30156149	          0.10739820	          0.05000637	          0.05000377	          0.05000229	          0.05000189	          0.35172881	          0.59967003	          0.05000063	          0.05000090	          0.05000161	          0.19844477	          0.06180702	          0.05223170	          0.05034087	          0.27546512	          0.37436562	          0.27436381	          0.28109024	          0.27776102	          0.36712610	          0.05000004	          0.05925766	          0.13211532	          0.05000028	          0.05000007	          0.05000027	          0.05000014	          0.05000024	          0.05000067	
          0.56658820	         -2.92409879	          2.12883704	         -5.30378150	          0.71108682	          0.91884740	          0.00144185	         28.83745541	          3.82717128	         -1.54936546	        -17.38573688	         -1.57661244	          6.13248396	        -13.25641121	         -8.61135175	          5.95627797	         -0.99432109	         -4.44941941	         11.35699839	         -0.07728568	         22.74958574	         -2.02870993	         -0.59936187	          1.88242765	         -6.65155247	        -13.49414858	          4.65460340	          4.42905380	        -13.47198330	         15.86442337	         17.52795355	         36.93929744	         86.51662706	         86.51662706	          0.05000003	          0.05000010	          0.10759131	          0.05000012	          0.05000013	          0.05000018	          0.05000109	          0.05000164	          0.18282537	          0.05000085	          0.05000431	          0.11668927	          0.26847454	          0.32669003	          0.21863723	          0.14061548	          0.05000137	          0.07028298	          0.12759096	          0.07648699	          0.12192110	          0.13790893	          0.05000019	          0.05000213	          0.39213105	          0.22158320	          0.11431571	          0.05929283	          0.16857323	          0.17421217	          0.14708764	          0.05000030	          0.05925842	          0.05000005	          0.06593514	          0.05000600	          0.05925899	          0.51087122	          0.33656780	          0.20957830	          0.27654579	          0.44965052	          0.23320279	          0.05000003	          0.08632988	          0.08522494	          0.23031077	          0.08324342	          0.05926548	          0.25231835	          0.16424230	          0.08973439	          0.05000480	          0.05000111	          0.05000183	          0.05032193	          0.08324204	          0.19119120	          0.14396386	          0.07024306	          0.05926365	          0.05925947	          0.25444826	          0.09062444	          0.05000389	          0.05001779	          0.05001543	          0.05034860	          0.29677772	          0.54957609	          0.05022287	          0.05926054	          0.05925592	          0.16744153	          0.13495629	          0.15392032	          0.14164376	          0.23242873	          0.31587786	          0.23149949	          0.23717531	          0.23436653	          0.30976991	          0.05000006	          0.05000023	          0.13294872	          0.05000018	          0.05000005	          0.05000027	          0.06185919	          0.05968046	          0.05925769	
          0.57769777	         -2.91492391	          2.23529397	         -5.54922730	          0.72806022	          0.91778940	          0.00123801	         28.05413538	          4.09687852	         -1.29350198	        -17.10802104	         -1.87055974	          5.91562906	        -13.68600319	        -10.77848752	          5.50166523	         -1.99128693	         -4.85472678	         12.20580869	         -0.16581206	         23.45832555	         -1.82246857	         -0.83787030	          1.93552935	         -7.50058670	        -13.50462760	          4.46776933	          4.06892069	        -13.48224111	         16.11244673	         17.19489403	         38.06064154	         86.51662706	         86.51662706	          0.24934326	          0.25367293	          0.30518885	          0.36797940	          0.23735815	          0.19097016	          0.06944995	          0.05000152	          0.15761151	          0.05030916	          0.05925628	          0.09845878	          0.22653039	          0.27565085	          0.18447939	          0.11865137	          0.05000105	          0.05930425	          0.10765761	          0.16784966	          0.15182200	          0.11636337	          0.05924414	          0.05000191	          0.33086787	          0.18696513	          0.23204951	          0.05002947	          0.14223689	          0.14699486	          0.12410800	          0.05000078	          0.05000098	          0.05000857	          0.05563406	          0.05000061	          0.05000133	          0.60684434	          0.36397107	          0.18538900	          0.33203245	          0.55084692	          0.27326317	          0.06555684	          0.10480084	          0.07191011	          0.34363799	          0.07023821	          0.05000642	          0.31608282	          0.13858260	          0.07571513	          0.05000390	          0.05000050	          0.05000039	          0.05000062	          0.07023766	          0.16132163	          0.12147357	          0.05926925	          0.05000643	          0.05000175	          0.22680343	          0.07656401	          0.05002075	          0.05000393	          0.05000209	          0.05000132	          0.25041178	          0.50934496	          0.05000058	          0.05000323	          0.05000067	          0.14128192	          0.11387202	          0.12987328	          0.11951468	          0.19611599	          0.26652773	          0.19533193	          0.20012108	          0.19775129	          0.26137423	          0.05000006	          0.10286730	          0.16063685	          0.05000026	          0.05000021	          0.05000038	          0.06245044	          0.05035649	          0.05000010	
          0.58880735	         -2.90402622	          2.33400821	         -5.76171555	          0.74505371	          0.91677535	          0.00100954	         27.21291262	          4.34903823	         -1.04031276	        -16.72226011	         -2.14936671	          5.70432153	        -14.06784515	        -13.10050715	          5.11338646	         -3.12961113	         -5.27119508	         12.99650345	         -0.17696104	         23.87142097	         -1.62202406	         -1.07357455	          1.98053039	         -8.30916737	        -13.51490044	          4.34713676	          3.68432577	        -13.49861000	         16.32650681	         16.85776716	         39.12394133	         86.51662706	         86.51662706	          0.34421582	          0.36086627	          0.40173696	          0.31048988	          0.20027669	          0.23911623	          0.06928203	          0.10270424	          0.13298784	          0.06886934	          0.05000082	          0.08307648	          0.19113938	          0.23258743	          0.21476057	          0.16869155	          0.05000046	          0.05004316	          0.12022839	          0.24736448	          0.19945278	          0.16804627	          0.05000018	          0.05000019	          0.27917596	          0.15775540	          0.21060181	          0.05000008	          0.17185170	          0.18769835	          0.14666499	          0.05000004	          0.05000008	          0.05000001	          0.05000002	          0.05000020	          0.05000017	          0.66249088	          0.30710770	          0.15642561	          0.60388925	          0.57373803	          0.36729069	          0.08897982	          0.08842765	          0.06067548	          0.29401194	          0.05926483	          0.05000013	          0.26670302	          0.11693173	          0.06388612	          0.05000401	          0.05000038	          0.05000034	          0.05000022	          0.05926462	          0.17367274	          0.14796595	          0.05001059	          0.05001055	          0.06425534	          0.19137120	          0.06460353	          0.05000108	          0.05000448	          0.05000300	          0.05000229	          0.21128958	          0.45936657	          0.05000031	          0.05000097	          0.05000027	          0.11920924	          0.11691061	          0.11691059	          0.11691045	          0.16547645	          0.22488766	          0.16481488	          0.16885589	          0.16685649	          0.22053945	          0.10578399	          0.15276580	          0.14812663	          0.05000268	          0.14170187	          0.05000237	          0.09368093	          0.05000003	          0.05000007	
